<svg id="Layer_1" data-name="Layer 1" xmlns="http://www.w3.org/2000/svg" xmlns:xlink="http://www.w3.org/1999/xlink" viewBox="0 0 863.45 560.71"><defs><style>.cls-1{fill:none;}.cls-2{fill:#fff;}.cls-3{clip-path:url(#clip-path);}.cls-4{fill:#a3e1c1;}.cls-5{fill:#a2e1c1;}.cls-6{fill:#a1e1c1;}.cls-7{fill:#a1e0c1;}.cls-8{fill:#a0e0c1;}.cls-9{fill:#9fe0c1;}.cls-10{fill:#9ee0c1;}.cls-11{fill:#9de0c1;}.cls-12{fill:#9ddfc1;}.cls-13{fill:#9cdfc1;}.cls-14{fill:#9bdfc1;}.cls-15{fill:#9adfc1;}.cls-16{fill:#99dfc1;}.cls-17{fill:#98dec1;}.cls-18{fill:#97dec1;}.cls-19{fill:#96dec1;}.cls-20{fill:#95dec2;}.cls-21{fill:#94ddc2;}.cls-22{fill:#93ddc2;}.cls-23{fill:#92ddc2;}.cls-24{fill:#91ddc2;}.cls-25{fill:#90dcc2;}.cls-26{fill:#8fdcc2;}.cls-27{fill:#8edcc2;}.cls-28{fill:#8ddcc2;}.cls-29{fill:#8cdbc2;}.cls-30{fill:#8bdbc2;}.cls-31{fill:#8adbc2;}.cls-32{fill:#89dbc2;}.cls-33{fill:#88dac2;}.cls-34{fill:#87dac2;}.cls-35{fill:#86dac2;}.cls-36{fill:#85dac2;}.cls-37{fill:#84d9c2;}.cls-38{fill:#83d9c2;}.cls-39{fill:#82d9c2;}.cls-40{fill:#81d9c2;}.cls-41{fill:#80d8c2;}.cls-42{fill:#7fd8c2;}.cls-43{fill:#7ed8c2;}.cls-44{fill:#7dd8c2;}.cls-45{fill:#7cd7c2;}.cls-46{fill:#7bd7c2;}.cls-47{fill:#7ad7c3;}.cls-48{fill:#79d7c3;}.cls-49{fill:#78d6c3;}.cls-50{fill:#77d6c3;}.cls-51{fill:#76d6c3;}.cls-52{fill:#75d6c3;}.cls-53{fill:#74d6c3;}.cls-54{fill:#73d5c3;}.cls-55{fill:#72d5c3;}.cls-56{fill:#71d5c3;}.cls-57{fill:#70d5c3;}.cls-58{fill:#6fd4c3;}.cls-59{fill:#6ed4c3;}.cls-60{fill:#6dd4c3;}.cls-61{fill:#6cd4c3;}.cls-62{fill:#6bd3c3;}.cls-63{fill:#6ad3c3;}.cls-64{fill:#69d3c3;}.cls-65{fill:#68d3c3;}.cls-66{fill:#67d2c3;}.cls-67{fill:#66d2c3;}.cls-68{fill:#65d2c3;}.cls-69{fill:#64d2c3;}.cls-70{fill:#63d1c3;}.cls-71{fill:#62d1c3;}.cls-72{fill:#61d1c3;}.cls-73{fill:#60d0c3;}.cls-74{fill:#5fd0c4;}.cls-75{fill:#5ed0c4;}.cls-76{fill:#5dd0c4;}.cls-77{fill:#5bcfc4;}.cls-78{fill:#5acfc4;}.cls-79{fill:#59cfc4;}.cls-80{fill:#58cfc4;}.cls-81{fill:#57cec4;}.cls-82{fill:#56cec4;}.cls-83{fill:#55cec4;}.cls-84{fill:#54cec4;}.cls-85{fill:#53cdc4;}.cls-86{fill:#52cdc4;}.cls-87{fill:#51cdc4;}.cls-88{fill:#4fccc4;}.cls-89{fill:#4eccc4;}.cls-90{fill:#4dccc4;}.cls-91{fill:#4cccc4;}.cls-92{fill:#4bcbc4;}.cls-93{fill:#4acbc4;}.cls-94{fill:#49cbc4;}.cls-95{fill:#48cbc4;}.cls-96{fill:#46cac4;}.cls-97{fill:#45cac4;}.cls-98{fill:#44cac4;}.cls-99{fill:#43c9c5;}.cls-100{fill:#42c9c5;}.cls-101{fill:#41c9c5;}.cls-102{fill:#40c9c5;}.cls-103{fill:#3ec8c5;}.cls-104{fill:#3dc8c5;}.cls-105{fill:#3cc8c5;}.cls-106{fill:#3bc7c5;}.cls-107{fill:#3ac7c5;}.cls-108{fill:#39c7c5;}.cls-109{fill:#37c7c5;}.cls-110{fill:#36c6c5;}.cls-111{fill:#35c6c5;}.cls-112{fill:#34c6c5;}.cls-113{fill:#33c5c5;}.cls-114{fill:#32c5c5;}.cls-115{fill:#30c5c5;}.cls-116{fill:#2fc5c5;}.cls-117{fill:#2ec4c5;}.cls-118{fill:#2dc4c5;}.cls-119{fill:#2cc4c5;}.cls-120{fill:#2ac3c5;}.cls-121{fill:#29c3c5;}.cls-122{fill:#28c3c6;}.cls-123{fill:#27c3c6;}.cls-124{fill:#26c2c6;}.cls-125{fill:#24c2c6;}.cls-126{fill:#23c2c6;}.cls-127{fill:#22c1c6;}.cls-128{fill:#21c1c6;}.cls-129{fill:#1fc1c6;}.cls-130{fill:#1ec0c6;}.cls-131{fill:#1dc0c6;}.cls-132{fill:#1cc0c6;}.cls-133{fill:#1ac0c6;}.cls-134{fill:#19bfc6;}.cls-135{fill:#18bfc6;}.cls-136{fill:#17bfc6;}.cls-137{fill:#16bec6;}.cls-138{fill:#14bec6;}.cls-139{fill:#13bec6;}.cls-140{fill:#12bdc6;}.cls-141{fill:#11bdc6;}.cls-142{fill:#0fbdc6;}.cls-143{fill:#0ebcc6;}.cls-144{fill:#0dbcc7;}.cls-145{fill:#0bbcc7;}.cls-146{fill:#0abcc7;}.cls-147{fill:#09bbc7;}.cls-148{fill:#08bbc7;}.cls-149{fill:#06bbc7;}.cls-150{fill:#05bac7;}.cls-151{fill:#04bac7;}.cls-152{fill:#03bac7;}.cls-153{fill:#01b9c7;}.cls-154{fill:#00b9c7;}.cls-155{fill:#00b9c8;}.cls-156{fill:#00b8c8;}.cls-157{fill:#00b7c9;}.cls-158{fill:#00b7ca;}.cls-159{fill:#00b6ca;}.cls-160{fill:#00b5cb;}.cls-161{fill:#00b4cc;}.cls-162{fill:#00b4cd;}.cls-163{fill:#00b3ce;}.cls-164{fill:#00b2cf;}.cls-165{fill:#00b1d0;}.cls-166{fill:#00b0d0;}.cls-167{fill:#00b0d1;}.cls-168{fill:#00afd2;}.cls-169{fill:#00aed3;}.cls-170{fill:#00add4;}.cls-171{fill:#01acd5;}.cls-172{fill:#01abd6;}.cls-173{fill:#01aad7;}.cls-174{fill:#01a9d8;}.cls-175{fill:#01a8d9;}.cls-176{fill:#01a7da;}.cls-177{fill:#01a7db;}.cls-178{fill:#01a6dc;}.cls-179{fill:#01a5dd;}.cls-180{fill:#01a4de;}.cls-181{fill:#01a3df;}.cls-182{fill:#01a2e0;}.cls-183{fill:#01a1e2;}.cls-184{fill:#01a0e3;}.cls-185{fill:#019fe4;}.cls-186{fill:#019ee5;}.cls-187{fill:#019de6;}.cls-188{fill:#019ce7;}.cls-189{fill:#019be8;}.cls-190{fill:#019ae9;}.cls-191{fill:#0199ea;}.cls-192{fill:#0198eb;}.cls-193{fill:#0197ed;}.cls-194{fill:#0196ee;}.cls-195{fill:#0195ef;}.cls-196{fill:#0194f0;}.cls-197{fill:#0293f1;}.cls-198{fill:#0292f2;}.cls-199{fill:#0291f3;}.cls-200{fill:#0290f4;}.cls-201{fill:#028ff6;}.cls-202{fill:#028df7;}.cls-203{fill:#028cf8;}.cls-204{fill:#028bf9;}.cls-205{fill:#028afa;}.cls-206{fill:#0289fb;}.cls-207{fill:#0288fd;}.cls-208{fill:#0287fe;}.cls-209{fill:#0286ff;}.cls-210{fill:#0285fe;}.cls-211{fill:#0385fd;}.cls-212{fill:#0384fd;}.cls-213{fill:#0383fc;}.cls-214{fill:#0483fb;}.cls-215{fill:#0482fa;}.cls-216{fill:#0481f9;}.cls-217{fill:#0581f8;}.cls-218{fill:#0580f7;}.cls-219{fill:#057ff6;}.cls-220{fill:#067ff5;}.cls-221{fill:#067ef4;}.cls-222{fill:#067df4;}.cls-223{fill:#077df3;}.cls-224{fill:#077cf2;}.cls-225{fill:#077bf1;}.cls-226{fill:#087af0;}.cls-227{fill:#087aef;}.cls-228{fill:#0879ee;}.cls-229{fill:#0978ed;}.cls-230{fill:#0977ec;}.cls-231{fill:#0a77eb;}.cls-232{fill:#0a76ea;}.cls-233{fill:#0a75e9;}.cls-234{fill:#0b75e8;}.cls-235{fill:#0b74e7;}.cls-236{fill:#0b73e6;}.cls-237{fill:#0c72e5;}.cls-238{fill:#0c72e4;}.cls-239{fill:#0c71e3;}.cls-240{fill:#0d70e2;}.cls-241{fill:#0d6fe1;}.cls-242{fill:#0e6fe0;}.cls-243{fill:#0e6edf;}.cls-244{fill:#0e6dde;}.cls-245{fill:#0f6cdd;}.cls-246{fill:#0f6cdc;}.cls-247{fill:#0f6bdb;}.cls-248{fill:#106ada;}.cls-249{fill:#1069d9;}.cls-250{fill:#1169d8;}.cls-251{fill:#1168d7;}.cls-252{fill:#1167d6;}.cls-253{fill:#1266d5;}.cls-254{fill:#1265d4;}.cls-255{fill:#1265d3;}.cls-256{fill:#1364d2;}.cls-257{fill:#1363d1;}.cls-258{fill:#1462d0;}.cls-259{fill:#1462cf;}.cls-260{fill:#1461ce;}.cls-261{fill:#1560cd;}.cls-262{fill:#155fcc;}.cls-263{fill:#165fcb;}.cls-264{fill:#165eca;}.cls-265{fill:#165dc9;}.cls-266{fill:#175cc8;}.cls-267{fill:#175bc7;}.cls-268{fill:#175bc6;}.cls-269{fill:#185ac5;}.cls-270{fill:#1859c4;}.cls-271{fill:#1958c3;}.cls-272{fill:#1958c2;}.cls-273{fill:#1957c1;}.cls-274{fill:#1a56c0;}.cls-275{fill:#1a55bf;}.cls-276{fill:#1b54be;}.cls-277{fill:#1b54bd;}.cls-278{fill:#1b53bc;}.cls-279{fill:#1c52bb;}.cls-280{fill:#1c51ba;}.cls-281{fill:#1c51b9;}.cls-282{fill:#1d50b8;}.cls-283{fill:#1d4fb7;}.cls-284{fill:#1e4eb6;}.cls-285{fill:#1e4db5;}.cls-286{fill:#1e4db4;}.cls-287{fill:#1f4cb2;}.cls-288{fill:#1f4bb1;}.cls-289{fill:#204ab0;}.cls-290{fill:#2049af;}.cls-291{fill:#2049ae;}.cls-292{fill:#2148ad;}.cls-293{fill:#2147ac;}.cls-294{fill:#2246ab;}.cls-295{fill:#2246aa;}.cls-296{fill:#2245a9;}.cls-297{fill:#2344a8;}.cls-298{fill:#2343a7;}.cls-299{fill:#2342a6;}.cls-300{fill:#2442a5;}.cls-301{fill:#2441a4;}.cls-302{fill:#2540a3;}.cls-303{fill:#253fa2;}.cls-304{fill:#253ea1;}.cls-305{fill:#263ea0;}.cls-306{fill:#263d9f;}.cls-307{fill:#273c9e;}.cls-308{fill:#273b9d;}.cls-309{fill:#273a9b;}.cls-310{fill:#283a9a;}.cls-311{fill:#283999;}.cls-312{fill:#293898;}.cls-313{fill:#293797;}.cls-314{fill:#293696;}.cls-315{fill:#2a3695;}.cls-316{fill:#2a3594;}.cls-317{fill:#2b3493;}.cls-318{fill:#2b3392;}.cls-319{fill:#2b3291;}.cls-320{fill:#2c3290;}.cls-321{fill:#2c318f;}.cls-322{fill:#2d308e;}.cls-323{fill:#2d2f8d;}.cls-324{fill:#2d2e8c;}.cls-325{fill:#2e2d8b;}.cls-326{fill:#2e2d89;}.cls-327{fill:#2f2c88;}.cls-328{fill:#2f2b87;}.cls-329{fill:#2f2a86;}.cls-330{fill:#302985;}.cls-331{fill:#302984;}.cls-332{fill:#312883;}.cls-333{fill:#312782;}</style><clipPath id="clip-path"><polygon class="cls-1" points="501.34 240.3 501.34 163.15 434.52 124.57 367.71 163.15 367.71 240.3 434.52 278.88 501.34 240.3"/></clipPath></defs><title>SettleMint_logo_cmyk_ver_neg</title><path class="cls-2" d="M162,378c-3.75-1.2-7.61-2.19-11.34-3.16-2-.51-4-1-6-1.57l-1.85-.49a49.68,49.68,0,0,1-6.31-2c-3.78-1.55-5.68-4.29-5.65-8.14,0-4.09,2-6.93,5.85-8.67,2.64-1.19,5.62-1.55,9.65-1.17,3,.29,10.35,1.79,12.33,9.61.18.7.54,2.18.54,2.18l2.34-.59c5.66-1.51,11.52-3.06,17.29-4.54.7-.18,2.1-.59,2.1-.59s-.3-1.45-.48-2.22c-2.34-10.23-8.35-17.51-17.86-21.62a45,45,0,0,0-35.12-.56c-8,3.08-13.94,8.6-17.09,15.94a33.43,33.43,0,0,0-.14,25.12c3.33,8.09,9.53,13.67,18.41,16.59,4.24,1.39,8.65,2.47,12.91,3.51,2.41.59,4.9,1.19,7.42,1.88a34.61,34.61,0,0,1,6.89,2.39,8.47,8.47,0,0,1,3.74,11.29c-1.18,2.51-3.4,4.16-6.79,5a27.68,27.68,0,0,1-15.18-.31c-4.76-1.44-7.79-4-9.26-7.8-.23-.59-.41-1.22-.6-1.89-.1-.33-.19-.66-.29-1l-.35-1.13-21.56,5.51.26,1.17c.09.39.17.76.25,1.12.17.79.33,1.53.53,2.25,2.59,9.35,8.75,16.19,18.31,20.33a49.62,49.62,0,0,0,19.84,4.17,53.52,53.52,0,0,0,16.06-2.54c13.13-4.1,20.6-12.75,22.2-25.71,1-8.38-.83-15.76-5.56-21.93A30.75,30.75,0,0,0,162,378Z"/><path class="cls-2" d="M361.82,365.94h-13l0-28H327.1l0,28H300.27l0-28H278.58V366h-13v18.6h13l0,52h21.69v-52h26.85v52h21.66l0-52.05,13.06.05Z"/><path class="cls-2" d="M704.25,393.91a46.94,46.94,0,0,0-.73-8.38c-1.76-9.4-6.8-15.86-15-19.21a34.75,34.75,0,0,0-19.12-1.89,23.69,23.69,0,0,0-12.82,6l-.43-4.39h-20.7l-.15,70.68h22s0-26.33,0-37.79a37,37,0,0,1,.17-4c.44-4.23,2.06-7,5.08-8.68a15,15,0,0,1,9.74-2.09c5.59.83,8.82,3.69,9.59,8.51a36.65,36.65,0,0,1,.45,6c0,10.48,0,38,0,38h22S704.28,401.44,704.25,393.91Z"/><polygon class="cls-2" points="745.02 365.92 745.02 337.93 723.25 337.93 723.27 366.01 710.29 366.01 710.26 384.64 723.27 384.64 723.27 436.65 745.13 436.65 745.13 384.65 757.86 384.65 757.86 365.92 745.02 365.92"/><rect class="cls-2" x="369.68" y="337.93" width="21.88" height="98.69"/><rect class="cls-2" x="600.38" y="366.07" width="21.85" height="70.58"/><path class="cls-2" d="M611.46,331.71h-.06a12.63,12.63,0,0,0-9.16,21.47,12.81,12.81,0,0,0,9.09,3.75h0a12.69,12.69,0,0,0,8.84-21.57A12.29,12.29,0,0,0,611.46,331.71Z"/><polygon class="cls-2" points="563.09 337.93 534.62 408.35 506.25 337.93 482.94 337.93 482.94 436.63 504.8 436.63 504.8 387.38 524.02 436.74 545.06 436.74 564.62 386.78 564.62 436.63 587.12 436.63 587.12 337.93 563.09 337.93"/><path class="cls-2" d="M238.48,414.49a12.92,12.92,0,0,1-2.14,2.11c-5.41,4.07-15.26,3.81-20.66-.54a11,11,0,0,1-3.91-6.75l49.71,0H262l0-2.3c.08-5.51.16-11.21-1.22-16.78-2.53-10.14-8.06-17.57-16.43-22.08-7.36-4-15.76-5.15-25-3.52-11.27,2-19.5,8.08-24.46,18.08-4.45,9-5.41,18.91-2.84,29.58,2.4,10,8,17.41,16.79,22.11a36.09,36.09,0,0,0,17.46,4.13c1,0,2.12,0,3.21-.1,9.37-.6,17.23-4,23.36-10a27.81,27.81,0,0,0,5-6.79Zm-15.29-31.78c5.2-.79,9.1,0,12.25,2.56,2.33,1.87,3.61,4.38,4.09,8H212.31A12.94,12.94,0,0,1,223.19,382.71Z"/><path class="cls-2" d="M449.34,414.49a13,13,0,0,1-2.15,2.11c-5.4,4.07-15.26,3.81-20.65-.54a11,11,0,0,1-3.92-6.75l49.71,0h.52l0-2.3c.08-5.51.17-11.21-1.22-16.78-2.52-10.14-8.05-17.57-16.43-22.08-7.35-4-15.75-5.15-25-3.52-11.26,2-19.49,8.08-24.46,18.08-4.45,9-5.4,18.91-2.84,29.58,2.41,10,8.06,17.41,16.8,22.11a36.05,36.05,0,0,0,17.45,4.13c1,0,2.12,0,3.21-.1,9.37-.6,17.23-4,23.36-10a27.55,27.55,0,0,0,5-6.79Zm-15.29-31.78c5.2-.79,9.09,0,12.24,2.56,2.33,1.87,3.62,4.38,4.09,8H423.17A12.92,12.92,0,0,1,434.05,382.71Z"/><g class="cls-3"><rect class="cls-4" x="367.71" y="124.57" width="133.63" height="154.31"/><path class="cls-4" d="M507.82,244.2a81.44,81.44,0,0,1-149.88-13.39h7.24V168.73h-1.69a81.44,81.44,0,0,1,149.88,13.39h-9.5V244.2Z"/><path class="cls-4" d="M507.71,244.14a81.32,81.32,0,0,1-149.66-13.37h7.13v-62h-1.59a81.32,81.32,0,0,1,149.66,13.37h-9.38v62Z"/><path class="cls-5" d="M507.6,244.08a81.2,81.2,0,0,1-149.43-13.36h7v-61.9H363.7a81.2,81.2,0,0,1,149.44,13.36h-9.27v61.9Z"/><path class="cls-5" d="M507.5,244a81.07,81.07,0,0,1-149.21-13.33h6.89V168.87h-1.37A81.08,81.08,0,0,1,513,182.21h-9.15V244Z"/><path class="cls-5" d="M507.39,244a81,81,0,0,1-149-13.32h6.78V168.92h-1.26a80.95,80.95,0,0,1,149,13.32h-9V244Z"/><path class="cls-6" d="M507.28,243.88a80.83,80.83,0,0,1-148.76-13.29h6.66V169H364a80.83,80.83,0,0,1,148.76,13.3h-8.92v61.61Z"/><path class="cls-7" d="M507.17,243.82a80.7,80.7,0,0,1-148.53-13.27h6.54V169h-1.05a80.71,80.71,0,0,1,148.54,13.27h-8.8v61.53Z"/><path class="cls-8" d="M507.06,243.75A80.58,80.58,0,0,1,358.75,230.5h6.43V169.07h-.94a80.58,80.58,0,0,1,148.31,13.25h-8.68v61.43Z"/><path class="cls-8" d="M507,243.69a80.46,80.46,0,0,1-148.08-13.23h6.31V169.12h-.83a80.46,80.46,0,0,1,148.09,13.23h-8.57v61.34Z"/><path class="cls-9" d="M506.85,243.63A80.34,80.34,0,0,1,359,230.41h6.19V169.17h-.72a80.34,80.34,0,0,1,147.86,13.21h-8.45v61.25Z"/><path class="cls-10" d="M506.74,243.56A80.22,80.22,0,0,1,359.1,230.37h6.08V169.22h-.61A80.21,80.21,0,0,1,512.2,182.41h-8.33v61.15Z"/><path class="cls-10" d="M506.63,243.5a80.09,80.09,0,0,1-147.41-13.18h6V169.26h-.51a80.1,80.1,0,0,1,147.42,13.18h-8.22V243.5Z"/><path class="cls-11" d="M506.52,243.43a80,80,0,0,1-147.19-13.15h5.85v-61h-.4A80,80,0,0,1,512,182.47h-8.1v61Z"/><path class="cls-12" d="M506.41,243.37a79.85,79.85,0,0,1-147-13.13h5.73V169.36h-.29a79.84,79.84,0,0,1,147,13.14h-8v60.87Z"/><path class="cls-13" d="M506.31,243.31a79.73,79.73,0,0,1-146.74-13.12h5.61V169.41H365a79.73,79.73,0,0,1,146.74,13.11h-7.87v60.79Z"/><path class="cls-14" d="M506.2,243.24a79.61,79.61,0,0,1-146.52-13.09h5.5V169.46h-.07a79.61,79.61,0,0,1,146.51,13.09h-7.75v60.69Z"/><path class="cls-14" d="M506.09,243.18a79.5,79.5,0,1,1,5.41-60.6h-7.63v60.6Z"/><path class="cls-15" d="M506,243.11a79.35,79.35,0,1,1,5.41-60.5h-7.52v60.5Z"/><path class="cls-16" d="M505.87,243.05a79.24,79.24,0,1,1,5.4-60.41h-7.4v60.41Z"/><path class="cls-17" d="M505.77,243a79.11,79.11,0,1,1,5.39-60.31h-7.29V243Z"/><path class="cls-17" d="M505.66,242.92A79,79,0,1,1,511,182.7h-7.17v60.22Z"/><path class="cls-18" d="M505.55,242.86a78.88,78.88,0,1,1,5.37-60.13h-7.05v60.13Z"/><path class="cls-19" d="M505.44,242.79a78.74,78.74,0,1,1,5.37-60h-6.94v60Z"/><path class="cls-19" d="M505.33,242.73a78.62,78.62,0,1,1,5.36-59.95h-6.82v59.95Z"/><path class="cls-20" d="M505.22,242.66a78.5,78.5,0,1,1,5.35-59.85h-6.7v59.85Z"/><path class="cls-21" d="M505.12,242.6a78.39,78.39,0,1,1,5.34-59.76h-6.59V242.6Z"/><path class="cls-22" d="M505,242.53a78.27,78.27,0,1,1,5.33-59.66h-6.47v59.66Z"/><path class="cls-23" d="M504.9,242.47a78.15,78.15,0,1,1,5.32-59.57h-6.35v59.57Z"/><path class="cls-23" d="M504.79,242.41a78,78,0,1,1,5.32-59.48h-6.24v59.48Z"/><path class="cls-24" d="M504.68,242.34A77.9,77.9,0,1,1,510,183h-6.12v59.38Z"/><path class="cls-25" d="M504.58,242.28a77.79,77.79,0,1,1,5.29-59.3h-6v59.3Z"/><path class="cls-26" d="M504.47,242.21a77.65,77.65,0,1,1,5.29-59.2h-5.89v59.2Z"/><path class="cls-27" d="M504.36,242.15A77.54,77.54,0,1,1,509.64,183h-5.77v59.11Z"/><path class="cls-27" d="M504.25,242.08a77.42,77.42,0,1,1,5.27-59h-5.65v59Z"/><path class="cls-28" d="M504.14,242a77.29,77.29,0,1,1,5.27-58.92h-5.54V242Z"/><path class="cls-29" d="M504,242a77.17,77.17,0,1,1,5.26-58.83h-5.42V242Z"/><path class="cls-30" d="M503.93,241.89a77.05,77.05,0,1,1,5.25-58.73h-5.31v58.73Z"/><path class="cls-31" d="M503.82,241.83a76.94,76.94,0,1,1,5.24-58.64A76.93,76.93,0,0,1,503.82,241.83Z"/><path class="cls-32" d="M503.71,241.76a76.8,76.8,0,1,1,5.23-58.54A76.8,76.8,0,0,1,503.71,241.76Z"/><path class="cls-32" d="M503.6,241.7a76.66,76.66,0,1,1,5.23-58.46A76.68,76.68,0,0,1,503.6,241.7Z"/><path class="cls-33" d="M503.49,241.64a76.55,76.55,0,1,1,5.22-58.37A76.57,76.57,0,0,1,503.49,241.64Z"/><path class="cls-34" d="M503.39,241.57a76.44,76.44,0,1,1,5.2-58.27A76.43,76.43,0,0,1,503.39,241.57Z"/><path class="cls-35" d="M503.28,241.51a76.31,76.31,0,1,1,5.2-58.18A76.31,76.31,0,0,1,503.28,241.51Z"/><path class="cls-36" d="M503.17,241.44a76.19,76.19,0,1,1,5.19-58.08A76.2,76.2,0,0,1,503.17,241.44Z"/><path class="cls-37" d="M503.06,241.38a76.07,76.07,0,1,1,5.18-58A76.07,76.07,0,0,1,503.06,241.38Z"/><path class="cls-38" d="M503,241.31a75.94,75.94,0,1,1,5.18-57.89A75.94,75.94,0,0,1,503,241.31Z"/><path class="cls-39" d="M502.85,241.25a75.84,75.84,0,1,1,5.16-57.8A75.84,75.84,0,0,1,502.85,241.25Z"/><path class="cls-40" d="M502.74,241.19a75.72,75.72,0,1,1,5.15-57.72A75.71,75.71,0,0,1,502.74,241.19Z"/><path class="cls-40" d="M502.63,241.12a75.58,75.58,0,1,1,5.15-57.62A75.57,75.57,0,0,1,502.63,241.12Z"/><path class="cls-41" d="M502.52,241.06a75.46,75.46,0,1,1,5.14-57.53A75.47,75.47,0,0,1,502.52,241.06Z"/><path class="cls-42" d="M502.41,241a75.34,75.34,0,1,1,5.13-57.43A75.34,75.34,0,0,1,502.41,241Z"/><circle class="cls-43" cx="435.65" cy="206.07" r="75.22"/><circle class="cls-44" cx="435.65" cy="206.07" r="75.09"/><circle class="cls-45" cx="435.65" cy="206.06" r="74.97"/><circle class="cls-46" cx="435.65" cy="206.05" r="74.85"/><circle class="cls-47" cx="435.65" cy="206.04" r="74.73"/><circle class="cls-48" cx="435.65" cy="206.04" r="74.61"/><circle class="cls-49" cx="435.65" cy="206.03" r="74.48"/><circle class="cls-50" cx="435.65" cy="206.02" r="74.36"/><circle class="cls-51" cx="435.65" cy="206.01" r="74.24"/><circle class="cls-52" cx="435.65" cy="206" r="74.12"/><circle class="cls-53" cx="435.65" cy="206" r="74"/><circle class="cls-54" cx="435.65" cy="205.99" r="73.87"/><circle class="cls-55" cx="435.65" cy="205.98" r="73.75"/><circle class="cls-56" cx="435.65" cy="205.97" r="73.63"/><circle class="cls-57" cx="435.65" cy="205.97" r="73.51"/><circle class="cls-58" cx="435.65" cy="205.96" r="73.39"/><circle class="cls-59" cx="435.65" cy="205.95" r="73.26"/><circle class="cls-60" cx="435.65" cy="205.94" r="73.14"/><circle class="cls-61" cx="435.65" cy="205.94" r="73.02"/><circle class="cls-62" cx="435.65" cy="205.93" r="72.9"/><circle class="cls-63" cx="435.65" cy="205.92" r="72.78"/><circle class="cls-64" cx="435.65" cy="205.91" r="72.65"/><circle class="cls-65" cx="435.65" cy="205.9" r="72.53"/><circle class="cls-66" cx="435.65" cy="205.9" r="72.41"/><circle class="cls-67" cx="435.65" cy="205.89" r="72.29"/><circle class="cls-68" cx="435.65" cy="205.88" r="72.17"/><circle class="cls-69" cx="435.65" cy="205.87" r="72.04"/><circle class="cls-70" cx="435.65" cy="205.87" r="71.92"/><circle class="cls-71" cx="435.65" cy="205.86" r="71.8"/><circle class="cls-72" cx="435.65" cy="205.85" r="71.68"/><circle class="cls-73" cx="435.65" cy="205.84" r="71.56"/><circle class="cls-74" cx="435.65" cy="205.84" r="71.43"/><circle class="cls-75" cx="435.65" cy="205.83" r="71.31"/><circle class="cls-76" cx="435.65" cy="205.82" r="71.19"/><circle class="cls-77" cx="435.65" cy="205.81" r="71.07"/><circle class="cls-78" cx="435.65" cy="205.8" r="70.95"/><circle class="cls-79" cx="435.65" cy="205.8" r="70.82"/><circle class="cls-80" cx="435.65" cy="205.79" r="70.7"/><circle class="cls-81" cx="435.65" cy="205.78" r="70.58"/><circle class="cls-82" cx="435.65" cy="205.77" r="70.46"/><circle class="cls-83" cx="435.65" cy="205.77" r="70.34"/><circle class="cls-84" cx="435.65" cy="205.76" r="70.21"/><circle class="cls-85" cx="435.65" cy="205.75" r="70.09"/><circle class="cls-86" cx="435.65" cy="205.74" r="69.97"/><circle class="cls-87" cx="435.65" cy="205.74" r="69.85"/><circle class="cls-88" cx="435.65" cy="205.73" r="69.73"/><circle class="cls-89" cx="435.65" cy="205.72" r="69.6"/><circle class="cls-90" cx="435.65" cy="205.71" r="69.48"/><circle class="cls-91" cx="435.65" cy="205.7" r="69.36"/><circle class="cls-92" cx="435.65" cy="205.7" r="69.24"/><circle class="cls-93" cx="435.65" cy="205.69" r="69.12"/><circle class="cls-94" cx="435.65" cy="205.68" r="68.99"/><circle class="cls-95" cx="435.65" cy="205.67" r="68.87"/><circle class="cls-96" cx="435.65" cy="205.67" r="68.75"/><circle class="cls-97" cx="435.65" cy="205.66" r="68.63"/><circle class="cls-98" cx="435.65" cy="205.65" r="68.5"/><circle class="cls-99" cx="435.65" cy="205.64" r="68.38"/><circle class="cls-100" cx="435.65" cy="205.64" r="68.26"/><circle class="cls-101" cx="435.65" cy="205.63" r="68.14"/><circle class="cls-102" cx="435.65" cy="205.62" r="68.02"/><circle class="cls-103" cx="435.65" cy="205.61" r="67.89"/><circle class="cls-104" cx="435.65" cy="205.6" r="67.77"/><circle class="cls-105" cx="435.65" cy="205.6" r="67.65"/><circle class="cls-106" cx="435.65" cy="205.59" r="67.53"/><circle class="cls-107" cx="435.65" cy="205.58" r="67.41"/><circle class="cls-108" cx="435.65" cy="205.57" r="67.28"/><circle class="cls-109" cx="435.65" cy="205.57" r="67.16"/><circle class="cls-110" cx="435.65" cy="205.56" r="67.04"/><circle class="cls-111" cx="435.65" cy="205.55" r="66.92"/><circle class="cls-112" cx="435.65" cy="205.54" r="66.8"/><circle class="cls-113" cx="435.65" cy="205.54" r="66.67"/><circle class="cls-114" cx="435.65" cy="205.53" r="66.55"/><circle class="cls-115" cx="435.65" cy="205.52" r="66.43"/><circle class="cls-116" cx="435.65" cy="205.51" r="66.31"/><circle class="cls-117" cx="435.65" cy="205.5" r="66.19"/><circle class="cls-118" cx="435.65" cy="205.5" r="66.06"/><circle class="cls-119" cx="435.65" cy="205.49" r="65.94"/><circle class="cls-120" cx="435.65" cy="205.48" r="65.82"/><circle class="cls-121" cx="435.65" cy="205.47" r="65.7"/><circle class="cls-122" cx="435.65" cy="205.47" r="65.58"/><circle class="cls-123" cx="435.65" cy="205.46" r="65.45"/><circle class="cls-124" cx="435.65" cy="205.45" r="65.33"/><circle class="cls-125" cx="435.65" cy="205.44" r="65.21"/><circle class="cls-126" cx="435.65" cy="205.44" r="65.09"/><circle class="cls-127" cx="435.65" cy="205.43" r="64.97"/><circle class="cls-128" cx="435.65" cy="205.42" r="64.84"/><circle class="cls-129" cx="435.65" cy="205.41" r="64.72"/><circle class="cls-130" cx="435.65" cy="205.4" r="64.6"/><circle class="cls-131" cx="435.65" cy="205.4" r="64.48"/><circle class="cls-132" cx="435.65" cy="205.39" r="64.36"/><circle class="cls-133" cx="435.65" cy="205.38" r="64.23"/><circle class="cls-134" cx="435.65" cy="205.37" r="64.11"/><circle class="cls-135" cx="435.65" cy="205.37" r="63.99"/><circle class="cls-136" cx="435.65" cy="205.36" r="63.87"/><circle class="cls-137" cx="435.65" cy="205.35" r="63.75"/><circle class="cls-138" cx="435.65" cy="205.34" r="63.62"/><circle class="cls-139" cx="435.65" cy="205.34" r="63.5"/><circle class="cls-140" cx="435.65" cy="205.33" r="63.38"/><circle class="cls-141" cx="435.65" cy="205.32" r="63.26"/><circle class="cls-142" cx="435.65" cy="205.31" r="63.14"/><circle class="cls-143" cx="435.65" cy="205.3" r="63.01"/><circle class="cls-144" cx="435.65" cy="205.3" r="62.89"/><circle class="cls-145" cx="435.65" cy="205.29" r="62.77"/><circle class="cls-146" cx="435.65" cy="205.28" r="62.65"/><circle class="cls-147" cx="435.65" cy="205.27" r="62.53"/><circle class="cls-148" cx="435.65" cy="205.27" r="62.4"/><circle class="cls-149" cx="435.65" cy="205.26" r="62.28"/><circle class="cls-150" cx="435.65" cy="205.25" r="62.16"/><circle class="cls-151" cx="435.65" cy="205.24" r="62.04"/><circle class="cls-152" cx="435.65" cy="205.24" r="61.92"/><circle class="cls-153" cx="435.65" cy="205.23" r="61.79"/><circle class="cls-154" cx="435.65" cy="205.22" r="61.67"/><circle class="cls-154" cx="435.65" cy="205.22" r="61.55"/><circle class="cls-155" cx="435.65" cy="205.2" r="61.22"/><circle class="cls-156" cx="435.65" cy="205.18" r="60.89"/><circle class="cls-157" cx="435.65" cy="205.16" r="60.56"/><circle class="cls-158" cx="435.65" cy="205.14" r="60.23"/><circle class="cls-159" cx="435.65" cy="205.11" r="59.9"/><circle class="cls-160" cx="435.65" cy="205.09" r="59.56"/><circle class="cls-161" cx="435.65" cy="205.07" r="59.23"/><circle class="cls-162" cx="435.65" cy="205.05" r="58.9"/><circle class="cls-163" cx="435.65" cy="205.03" r="58.57"/><circle class="cls-164" cx="435.65" cy="205.01" r="58.24"/><circle class="cls-165" cx="435.65" cy="204.99" r="57.91"/><circle class="cls-166" cx="435.65" cy="204.97" r="57.58"/><circle class="cls-167" cx="435.65" cy="204.95" r="57.25"/><circle class="cls-168" cx="435.65" cy="204.92" r="56.92"/><circle class="cls-169" cx="435.65" cy="204.9" r="56.59"/><circle class="cls-170" cx="435.65" cy="204.88" r="56.25"/><circle class="cls-171" cx="435.65" cy="204.86" r="55.92"/><circle class="cls-172" cx="435.65" cy="204.84" r="55.59"/><circle class="cls-173" cx="435.65" cy="204.82" r="55.26"/><circle class="cls-174" cx="435.65" cy="204.8" r="54.93"/><circle class="cls-175" cx="435.65" cy="204.78" r="54.6"/><circle class="cls-176" cx="435.65" cy="204.76" r="54.27"/><circle class="cls-177" cx="435.65" cy="204.73" r="53.94"/><circle class="cls-178" cx="435.65" cy="204.71" r="53.61"/><circle class="cls-179" cx="435.65" cy="204.69" r="53.28"/><circle class="cls-180" cx="435.65" cy="204.67" r="52.95"/><circle class="cls-181" cx="435.65" cy="204.65" r="52.61"/><circle class="cls-182" cx="435.65" cy="204.63" r="52.28"/><circle class="cls-183" cx="435.65" cy="204.61" r="51.95"/><circle class="cls-184" cx="435.65" cy="204.59" r="51.62"/><circle class="cls-185" cx="435.65" cy="204.57" r="51.29"/><circle class="cls-186" cx="435.65" cy="204.54" r="50.96"/><circle class="cls-187" cx="435.65" cy="204.52" r="50.63"/><circle class="cls-188" cx="435.65" cy="204.5" r="50.3"/><circle class="cls-189" cx="435.65" cy="204.48" r="49.97"/><circle class="cls-190" cx="435.65" cy="204.46" r="49.64"/><circle class="cls-191" cx="435.65" cy="204.44" r="49.31"/><circle class="cls-192" cx="435.65" cy="204.42" r="48.97"/><circle class="cls-193" cx="435.65" cy="204.4" r="48.64"/><circle class="cls-194" cx="435.65" cy="204.38" r="48.31"/><circle class="cls-195" cx="435.65" cy="204.35" r="47.98"/><circle class="cls-196" cx="435.65" cy="204.33" r="47.65"/><circle class="cls-197" cx="435.65" cy="204.31" r="47.32"/><circle class="cls-198" cx="435.65" cy="204.29" r="46.99"/><circle class="cls-199" cx="435.65" cy="204.27" r="46.66"/><circle class="cls-200" cx="435.65" cy="204.25" r="46.33"/><circle class="cls-201" cx="435.65" cy="204.23" r="46"/><circle class="cls-202" cx="435.65" cy="204.21" r="45.67"/><circle class="cls-203" cx="435.65" cy="204.19" r="45.33"/><circle class="cls-204" cx="435.65" cy="204.17" r="45"/><circle class="cls-205" cx="435.65" cy="204.14" r="44.67"/><circle class="cls-206" cx="435.65" cy="204.12" r="44.34"/><circle class="cls-207" cx="435.65" cy="204.1" r="44.01"/><circle class="cls-208" cx="435.65" cy="204.08" r="43.68"/><circle class="cls-209" cx="435.65" cy="204.06" r="43.35"/><circle class="cls-209" cx="435.65" cy="204.06" r="43.02"/><circle class="cls-210" cx="435.65" cy="204.04" r="42.77"/><circle class="cls-211" cx="435.65" cy="204.03" r="42.53"/><circle class="cls-212" cx="435.65" cy="204.01" r="42.28"/><circle class="cls-213" cx="435.65" cy="204" r="42.03"/><circle class="cls-214" cx="435.65" cy="203.98" r="41.79"/><circle class="cls-215" cx="435.65" cy="203.97" r="41.54"/><circle class="cls-216" cx="435.65" cy="203.95" r="41.3"/><circle class="cls-217" cx="435.65" cy="203.94" r="41.05"/><circle class="cls-218" cx="435.65" cy="203.92" r="40.8"/><circle class="cls-219" cx="435.65" cy="203.9" r="40.56"/><circle class="cls-220" cx="435.65" cy="203.89" r="40.31"/><circle class="cls-221" cx="435.65" cy="203.87" r="40.07"/><circle class="cls-222" cx="435.65" cy="203.86" r="39.82"/><circle class="cls-223" cx="435.65" cy="203.84" r="39.58"/><circle class="cls-224" cx="435.65" cy="203.83" r="39.33"/><circle class="cls-225" cx="435.65" cy="203.81" r="39.08"/><circle class="cls-226" cx="435.65" cy="203.8" r="38.84"/><circle class="cls-227" cx="435.65" cy="203.78" r="38.59"/><circle class="cls-228" cx="435.65" cy="203.76" r="38.35"/><circle class="cls-229" cx="435.65" cy="203.75" r="38.1"/><circle class="cls-230" cx="435.65" cy="203.73" r="37.85"/><circle class="cls-231" cx="435.65" cy="203.72" r="37.61"/><circle class="cls-232" cx="435.65" cy="203.7" r="37.36"/><circle class="cls-233" cx="435.65" cy="203.69" r="37.12"/><circle class="cls-234" cx="435.65" cy="203.67" r="36.87"/><circle class="cls-235" cx="435.65" cy="203.66" r="36.62"/><circle class="cls-236" cx="435.65" cy="203.64" r="36.38"/><circle class="cls-237" cx="435.65" cy="203.62" r="36.13"/><circle class="cls-238" cx="435.65" cy="203.61" r="35.89"/><circle class="cls-239" cx="435.65" cy="203.59" r="35.64"/><circle class="cls-240" cx="435.65" cy="203.58" r="35.39"/><circle class="cls-241" cx="435.65" cy="203.56" r="35.15"/><circle class="cls-242" cx="435.65" cy="203.55" r="34.9"/><circle class="cls-243" cx="435.65" cy="203.53" r="34.66"/><circle class="cls-244" cx="435.65" cy="203.52" r="34.41"/><circle class="cls-245" cx="435.65" cy="203.5" r="34.17"/><circle class="cls-246" cx="435.65" cy="203.49" r="33.92"/><circle class="cls-247" cx="435.65" cy="203.47" r="33.67"/><circle class="cls-248" cx="435.65" cy="203.45" r="33.43"/><circle class="cls-249" cx="435.65" cy="203.44" r="33.18"/><circle class="cls-250" cx="435.65" cy="203.42" r="32.94"/><circle class="cls-251" cx="435.65" cy="203.41" r="32.69"/><circle class="cls-252" cx="435.65" cy="203.39" r="32.44"/><circle class="cls-253" cx="435.65" cy="203.38" r="32.2"/><circle class="cls-254" cx="435.65" cy="203.36" r="31.95"/><circle class="cls-255" cx="435.65" cy="203.35" r="31.71"/><circle class="cls-256" cx="435.65" cy="203.33" r="31.46"/><circle class="cls-257" cx="435.65" cy="203.31" r="31.21"/><circle class="cls-258" cx="435.64" cy="203.3" r="30.97"/><circle class="cls-259" cx="435.64" cy="203.28" r="30.72"/><circle class="cls-260" cx="435.64" cy="203.27" r="30.48"/><circle class="cls-261" cx="435.64" cy="203.25" r="30.23"/><circle class="cls-262" cx="435.64" cy="203.24" r="29.98"/><circle class="cls-263" cx="435.64" cy="203.22" r="29.74"/><circle class="cls-264" cx="435.64" cy="203.21" r="29.49"/><circle class="cls-265" cx="435.64" cy="203.19" r="29.25"/><circle class="cls-266" cx="435.64" cy="203.17" r="29"/><circle class="cls-267" cx="435.64" cy="203.16" r="28.75"/><circle class="cls-268" cx="435.64" cy="203.14" r="28.51"/><circle class="cls-269" cx="435.64" cy="203.13" r="28.26"/><circle class="cls-270" cx="435.64" cy="203.11" r="28.02"/><circle class="cls-271" cx="435.64" cy="203.1" r="27.77"/><circle class="cls-272" cx="435.64" cy="203.08" r="27.53"/><circle class="cls-273" cx="435.64" cy="203.07" r="27.28"/><circle class="cls-274" cx="435.64" cy="203.05" r="27.03"/><circle class="cls-275" cx="435.64" cy="203.03" r="26.79"/><circle class="cls-276" cx="435.64" cy="203.02" r="26.54"/><circle class="cls-277" cx="435.64" cy="203" r="26.3"/><circle class="cls-278" cx="435.64" cy="202.99" r="26.05"/><circle class="cls-279" cx="435.64" cy="202.97" r="25.8"/><circle class="cls-280" cx="435.64" cy="202.96" r="25.56"/><circle class="cls-281" cx="435.64" cy="202.94" r="25.31"/><circle class="cls-282" cx="435.64" cy="202.93" r="25.07"/><circle class="cls-283" cx="435.64" cy="202.91" r="24.82"/><circle class="cls-284" cx="435.64" cy="202.9" r="24.57"/><circle class="cls-285" cx="435.64" cy="202.88" r="24.33"/><circle class="cls-286" cx="435.64" cy="202.86" r="24.08"/><circle class="cls-287" cx="435.64" cy="202.85" r="23.84"/><circle class="cls-288" cx="435.64" cy="202.83" r="23.59"/><circle class="cls-289" cx="435.64" cy="202.82" r="23.34"/><circle class="cls-290" cx="435.64" cy="202.8" r="23.1"/><circle class="cls-291" cx="435.64" cy="202.79" r="22.85"/><circle class="cls-292" cx="435.64" cy="202.77" r="22.61"/><circle class="cls-293" cx="435.64" cy="202.76" r="22.36"/><circle class="cls-294" cx="435.64" cy="202.74" r="22.12"/><circle class="cls-295" cx="435.64" cy="202.72" r="21.87"/><circle class="cls-296" cx="435.64" cy="202.71" r="21.62"/><circle class="cls-297" cx="435.64" cy="202.69" r="21.38"/><circle class="cls-298" cx="435.64" cy="202.68" r="21.13"/><circle class="cls-299" cx="435.64" cy="202.66" r="20.89"/><circle class="cls-300" cx="435.64" cy="202.65" r="20.64"/><circle class="cls-301" cx="435.64" cy="202.63" r="20.39"/><circle class="cls-302" cx="435.64" cy="202.62" r="20.15"/><circle class="cls-303" cx="435.64" cy="202.6" r="19.9"/><circle class="cls-304" cx="435.64" cy="202.58" r="19.66"/><circle class="cls-305" cx="435.64" cy="202.57" r="19.41"/><circle class="cls-306" cx="435.64" cy="202.55" r="19.16"/><circle class="cls-307" cx="435.64" cy="202.54" r="18.92"/><circle class="cls-308" cx="435.64" cy="202.52" r="18.67"/><circle class="cls-309" cx="435.64" cy="202.51" r="18.43"/><circle class="cls-310" cx="435.64" cy="202.49" r="18.18"/><circle class="cls-311" cx="435.64" cy="202.48" r="17.93"/><circle class="cls-312" cx="435.64" cy="202.46" r="17.69"/><circle class="cls-313" cx="435.64" cy="202.44" r="17.44"/><circle class="cls-314" cx="435.64" cy="202.43" r="17.2"/><circle class="cls-315" cx="435.64" cy="202.41" r="16.95"/><circle class="cls-316" cx="435.64" cy="202.4" r="16.71"/><circle class="cls-317" cx="435.64" cy="202.38" r="16.46"/><circle class="cls-318" cx="435.64" cy="202.37" r="16.21"/><circle class="cls-319" cx="435.64" cy="202.35" r="15.97"/><circle class="cls-320" cx="435.64" cy="202.34" r="15.72"/><circle class="cls-321" cx="435.64" cy="202.32" r="15.48"/><circle class="cls-322" cx="435.64" cy="202.31" r="15.23"/><circle class="cls-323" cx="435.64" cy="202.29" r="14.98"/><circle class="cls-324" cx="435.64" cy="202.27" r="14.74"/><circle class="cls-325" cx="435.64" cy="202.26" r="14.49"/><circle class="cls-326" cx="435.64" cy="202.24" r="14.25"/><circle class="cls-327" cx="435.64" cy="202.23" r="14"/><circle class="cls-328" cx="435.64" cy="202.21" r="13.75"/><circle class="cls-329" cx="435.64" cy="202.2" r="13.51"/><circle class="cls-330" cx="435.64" cy="202.18" r="13.26"/><circle class="cls-331" cx="435.64" cy="202.17" r="13.02"/><circle class="cls-332" cx="435.64" cy="202.15" r="12.77"/><circle class="cls-333" cx="435.64" cy="202.13" r="12.52"/></g><path class="cls-2" d="M434.53,281.43l-69-39.85V161.87l69-39.86,69,39.86v79.71ZM369.92,239l64.61,37.3,64.6-37.3v-74.6l-64.6-37.29-64.61,37.29Z"/><polygon class="cls-2" points="434.53 204.25 366.6 165.03 368.81 161.2 434.53 199.13 500.23 161.23 502.45 165.06 434.53 204.25"/><rect class="cls-2" x="432.31" y="201.69" width="4.43" height="77.18"/><polygon class="cls-2" points="471.93 258.56 467.5 258.56 467.5 182.67 435.28 163.96 437.51 160.13 471.93 180.12 471.93 258.56"/><polygon class="cls-2" points="434.56 241.91 366.63 203.65 368.81 199.78 434.53 236.81 468.61 217.14 470.82 220.97 434.56 241.91"/><rect class="cls-2" x="395.97" y="160.91" width="77.11" height="4.43" transform="translate(-23.35 239.11) rotate(-30)"/></svg>